<svg xmlns="http://www.w3.org/2000/svg" width="42" height="42" viewBox="0 0 42 42"><g transform="translate(-1187 -3348)"><path d="M422.034,1297.6h-4.255a1.292,1.292,0,0,1-1.29-1.293v-9.632h-2.482a1.289,1.289,0,0,1-1.287-1.293v-4.125a1.289,1.289,0,0,1,1.287-1.293h2.482V1277.9a7.056,7.056,0,0,1,1.857-5.04,6.664,6.664,0,0,1,4.923-1.915l3.246.006a1.289,1.289,0,0,1,1.285,1.293v3.831a1.291,1.291,0,0,1-1.287,1.294h-2.186c-.666,0-.837.134-.872.174-.061.073-.131.262-.131.794v1.633h3.023a1.309,1.309,0,0,1,.642.163,1.3,1.3,0,0,1,.663,1.131v4.127a1.291,1.291,0,0,1-1.291,1.291h-3.037v9.632A1.294,1.294,0,0,1,422.034,1297.6Zm-3.985-1.564h3.72v-10.059a.861.861,0,0,1,.86-.863h3.464v-3.586h-3.467a.865.865,0,0,1-.857-.866v-2.331a2.666,2.666,0,0,1,.517-1.825,2.639,2.639,0,0,1,2.04-.7h1.915v-3.293l-2.973-.006c-3.22,0-5.223,2.069-5.223,5.394v2.767a.86.86,0,0,1-.857.863h-2.912v3.586h2.912a.86.86,0,0,1,.857.863Zm8.463-23.527" transform="translate(786.801 2084.529)" fill="#d4252c"/><path d="M21,1a20.006,20.006,0,0,0-7.785,38.429A20.005,20.005,0,0,0,28.785,2.571,19.874,19.874,0,0,0,21,1m0-1A21,21,0,1,1,0,21,21,21,0,0,1,21,0Z" transform="translate(1187 3348)" fill="#d4252c"/></g></svg>