<svg xmlns="http://www.w3.org/2000/svg" width="40" height="40" viewBox="0 0 40 40"><g transform="translate(22570 -5048)"><rect width="40" height="40" transform="translate(-22570 5048)" fill="none"/><g transform="translate(-22565 5048)"><g transform="translate(0 0)"><path d="M1049.555,65.09h19.661a.6.6,0,0,0,.595-.6V58.325c-.086-5.344-5.572-6.939-9.581-8.108-.46-.135-.93-.271-1.362-.406l-.134-.039V47.26l.086-.058a7.728,7.728,0,0,0,2.091-1.943l.057-.077h2.57a2.017,2.017,0,0,0,2-2.02V40.437l.019-.039a2.6,2.6,0,0,0,.211-1.044v-.831a2.569,2.569,0,0,0-.211-1.044l-.019-.039V36.021a10.838,10.838,0,1,0-21.675,0v1.411l-.019.039a2.66,2.66,0,0,0-.221,1.053v.831a2.663,2.663,0,0,0,2.647,2.667h.806l.029.155a7.88,7.88,0,0,0,3.481,5.025l.086.058v2.513l-.134.039c-.422.135-.873.261-1.343.4h-.019c-4.009,1.169-9.495,2.764-9.581,8.108v6.166a.6.6,0,0,0,.595.6h2.321a.6.6,0,0,0,0-1.2h-1.726V58.325a5.354,5.354,0,0,1,2.839-4.677,18.137,18.137,0,0,1,4.21-1.8l.153-.048,1.966,3.856a.579.579,0,0,0,.384.3.643.643,0,0,0,.48-.077l1.065-.725.806,3.054-1.285,5.673h-1.851a.6.6,0,0,0-.595.6A.608.608,0,0,0,1049.555,65.09Zm12.027-13.221a18.133,18.133,0,0,1,4.21,1.8,5.365,5.365,0,0,1,2.839,4.677V63.9h-10.607l-1.285-5.673.806-3.054,1.065.725a.555.555,0,0,0,.479.077.6.6,0,0,0,.384-.3l1.966-3.856Zm-1.688-.5.384.106-1.554,3.064-2.944-2,2.455-1.672.086.029C1058.82,51.048,1059.367,51.213,1059.894,51.367Zm-5.179,1.885,1.794,1.218-.834,3.151h-1.918l-.834-3.151Zm0-1.44-2.829-1.923V47.849l.259.087a7.708,7.708,0,0,0,5.16,0l.259-.087v2.039Zm6.57-15.3-.326-.213c-1.563-1.005-2.916-1.875-5.006-1.266-.019,0-.029.01-.048.019-.46.174-.882.338-1.285.493a14.642,14.642,0,0,1-5.879,1.44c-.134,0-.269,0-.412-.01l-.182-.01v-.821a6.57,6.57,0,1,1,13.139,0v.367Zm3.079,6.649a.834.834,0,0,1-.825.831h-1.851l.115-.271a7.251,7.251,0,0,0,.489-1.546l.029-.155h.806a2.738,2.738,0,0,0,.969-.184l.259-.106Zm.23-3.808a1.471,1.471,0,0,1-1.458,1.479h-.671V37.055h.671a1.463,1.463,0,0,1,1.458,1.469Zm-17.82,1.479h-.479a1.465,1.465,0,0,1-1.458-1.479v-.831a1.463,1.463,0,0,1,1.458-1.469h.671v3.779Zm.2-5.151-.01.184h-.671a2.54,2.54,0,0,0-.969.184l-.269.106v-.29a9.729,9.729,0,0,1,2.877-6.775,9.581,9.581,0,0,1,13.542,0,9.728,9.728,0,0,1,2.877,6.775v.29l-.269-.106a2.54,2.54,0,0,0-.969-.184h-.671l-.01-.184a7.74,7.74,0,0,0-15.46,0Zm1.218,5.692h0a7.814,7.814,0,0,1-.048-.792V38.156h.192a15.37,15.37,0,0,0,6.694-1.508c.393-.155.8-.309,1.247-.483l.019-.01c1.563-.435,2.484.155,4.019,1.14.249.155.556.358.873.551l.1.058v2.667a6.6,6.6,0,0,1-.892,3.315l-.057.1h-5.62a.6.6,0,0,0,0,1.2h4.738l-.374.338a6.529,6.529,0,0,1-4.364,1.682A6.6,6.6,0,0,1,1048.193,41.374Zm2.522,13.163-1.563-3.064.384-.106c.527-.155,1.074-.309,1.582-.474l.086-.029,2.455,1.672Zm3.059,4.272h1.88l1.151,5.093h-4.191Z" transform="translate(-1039.6 -25.1)"/><path d="M1265.236,385.8h-3.942a.6.6,0,0,0,0,1.2h3.942a.6.6,0,0,0,0-1.2Z" transform="translate(-1239.495 -350.941)"/><ellipse cx="0.595" cy="0.599" rx="0.595" ry="0.599" transform="translate(5.85 38.802)"/></g></g></g></svg>