<svg xmlns="http://www.w3.org/2000/svg" width="42" height="42" viewBox="0 0 42 42"><g transform="translate(-1240 -3348)"><g transform="translate(1248.609 3356.111)"><path d="M447.524,1271.16H436.945a7.357,7.357,0,0,0-7.336,7.359v10.614a7.359,7.359,0,0,0,7.336,7.359h10.579a7.357,7.357,0,0,0,7.336-7.359v-10.614A7.355,7.355,0,0,0,447.524,1271.16Zm5.362,17.973a5.379,5.379,0,0,1-5.362,5.38H436.945a5.377,5.377,0,0,1-5.362-5.38v-10.614a5.375,5.375,0,0,1,5.362-5.38h10.579a5.376,5.376,0,0,1,5.362,5.38Z" transform="translate(-429.609 -1271.16)" fill="#d4252c"/><g transform="translate(5.821 5.839)"><path d="M438.416,1273.169a6.827,6.827,0,1,0,6.807,6.827A6.814,6.814,0,0,0,438.416,1273.169Zm0,11.675a4.848,4.848,0,1,1,4.833-4.848A4.842,4.842,0,0,1,438.416,1284.844Z" transform="translate(-431.612 -1273.169)" fill="#d4252c"/></g><g transform="translate(18.499 4.996)"><path d="M1.067-.125c.669,0,1.192.368,1.192.839s-.524.839-1.192.839S-.125,1.184-.125.714.4-.125,1.067-.125Zm0,1.428c.511,0,.942-.27.942-.589S1.578.125,1.067.125.125.395.125.714.556,1.3,1.067,1.3Z" fill="#d4252c"/></g></g><path d="M21,1a20.006,20.006,0,0,0-7.785,38.429A20.005,20.005,0,0,0,28.785,2.571,19.874,19.874,0,0,0,21,1m0-1A21,21,0,1,1,0,21,21,21,0,0,1,21,0Z" transform="translate(1240 3348)" fill="#d4252c"/></g></svg>