<svg xmlns="http://www.w3.org/2000/svg" width="29.063" height="29.063" viewBox="0 0 29.063 29.063"><defs><style>.a{fill:#d4252c;}</style></defs><path class="a" d="M15-25.781A14.529,14.529,0,0,0,.469-11.25,14.529,14.529,0,0,0,15,3.281,14.529,14.529,0,0,0,29.531-11.25,14.529,14.529,0,0,0,15-25.781ZM22.125-7.436a.7.7,0,0,1,0,1L19.8-4.125a.7.7,0,0,1-1,0L15-7.969,11.186-4.125a.7.7,0,0,1-1,0L7.875-6.445a.7.7,0,0,1,0-1l3.844-3.809L7.875-15.064a.7.7,0,0,1,0-1l2.32-2.32a.7.7,0,0,1,1,0L15-14.531l3.814-3.844a.7.7,0,0,1,1,0l2.32,2.32a.7.7,0,0,1,0,1l-3.85,3.809Z" transform="translate(-0.469 25.781)"/></svg>