<svg xmlns="http://www.w3.org/2000/svg" width="85.773" height="51.551" viewBox="0 0 85.773 51.551"><defs><style>.a{fill:#fea400;}.b{fill:#f48312;}.c{fill:#ee6d09;}.d{fill:#e23a42;}.e{fill:#dc1129;}.f{fill:#bd0b1b;}.g{fill:#fff;}.h{fill:#d4dfde;}</style></defs><path class="a" d="M377.43,1417.2a25.692,25.692,0,1,1-51.385,0h0a25.692,25.692,0,1,1,51.385,0Z" transform="translate(-291.656 -1391.422)"/><path class="b" d="M351.737,1391.423a25.8,25.8,0,0,1,25.692,25.769h0a25.692,25.692,0,1,1-51.385,0" transform="translate(-291.656 -1391.417)"/><path class="c" d="M330.072,1391.423a25.79,25.79,0,0,1,25.686,25.769h0a25.706,25.706,0,0,1-25.635,25.775h-.051" transform="translate(-269.991 -1391.417)"/><path class="d" d="M346.214,1391.423a25.773,25.773,0,1,0,17.532,44.858h0a24.258,24.258,0,0,0,2.578-2.73h-5.3a29.917,29.917,0,0,1-1.9-2.584h9.1a17.429,17.429,0,0,0,1.493-2.73h-12.1a16.188,16.188,0,0,1-1.091-2.725h14.138a26.98,26.98,0,0,0,1.353-8.179,34.753,34.753,0,0,0-.542-5.455H355.726a19.731,19.731,0,0,1,.676-2.724h14.138a16.554,16.554,0,0,0-1.091-2.731H357.5a27.471,27.471,0,0,1,1.493-2.725h9.1a12.708,12.708,0,0,0-2.035-2.724h-5.027a22.95,22.95,0,0,1,2.578-2.59,24.992,24.992,0,0,0-17.258-6.68C346.348,1391.423,346.348,1391.423,346.214,1391.423Z" transform="translate(-320.655 -1391.417)"/><path class="e" d="M320.677,1416.967a25.707,25.707,0,0,0,25.648,25.769h.038a25.931,25.931,0,0,0,17.264-6.68h0a24.248,24.248,0,0,0,2.578-2.73h-5.3a29.884,29.884,0,0,1-1.9-2.584h9.1a17.972,17.972,0,0,0,1.493-2.73h-12.1a16.2,16.2,0,0,1-1.091-2.725h14.138a26.978,26.978,0,0,0,1.353-8.179,34.745,34.745,0,0,0-.542-5.455H355.608a19.734,19.734,0,0,1,.676-2.724h14.138a16.56,16.56,0,0,0-1.091-2.731h-11.95a27.49,27.49,0,0,1,1.493-2.725h9.1a12.7,12.7,0,0,0-2.035-2.724h-5.027a22.945,22.945,0,0,1,2.578-2.59,25.052,25.052,0,0,0-17.264-6.693H346.1" transform="translate(-320.536 -1391.192)"/><path class="f" d="M324.929,1442.724a25.932,25.932,0,0,0,17.264-6.68h0a24.247,24.247,0,0,0,2.578-2.731h-5.3a29.869,29.869,0,0,1-1.9-2.584h9.1a18.008,18.008,0,0,0,1.5-2.731h-12.1a16.21,16.21,0,0,1-1.091-2.725h14.138a26.976,26.976,0,0,0,1.353-8.179,34.736,34.736,0,0,0-.542-5.455H334.174a19.774,19.774,0,0,1,.683-2.724h14.132a16.552,16.552,0,0,0-1.091-2.73H335.935a27.442,27.442,0,0,1,1.493-2.725h9.111a12.939,12.939,0,0,0-2.042-2.724h-5.028a22.476,22.476,0,0,1,2.584-2.59,25.007,25.007,0,0,0-17.264-6.68h-.128" transform="translate(-299.102 -1391.181)"/><g transform="translate(2.584 19.096)"><path class="g" d="M329.472,1406.6l.4-2.316a6.04,6.04,0,0,1-.676.14c-.951,0-1.091-.548-.951-.823l.816-4.772h1.493l.408-2.59h-1.359l.268-1.634h-2.712s-1.633,9-1.633,10.093a2.048,2.048,0,0,0,1.742,2.3,2.489,2.489,0,0,0,.434.012A4.155,4.155,0,0,0,329.472,1406.6Z" transform="translate(-297.119 -1393.382)"/><path class="g" d="M326.3,1400.994a4.323,4.323,0,0,0,4.753,4.772,7.026,7.026,0,0,0,2.858-.408l.542-2.591a8.319,8.319,0,0,1-2.858.682c-2.986,0-2.443-2.181-2.443-2.181h5.582a17.759,17.759,0,0,0,.4-2.457,3.687,3.687,0,0,0-3.4-3.955,3.6,3.6,0,0,0-.536,0C328.336,1394.582,326.3,1397.581,326.3,1400.994Zm4.753-3.956c1.5,0,1.225,1.774,1.225,1.908h-2.992c0-.134.274-1.914,1.767-1.914Z" transform="translate(-292.998 -1392.133)"/><path class="g" d="M336.025,1407.635l.549-3a6.707,6.707,0,0,1-2.31.683c-1.908,0-2.724-1.5-2.724-3.133,0-3.273,1.633-5.046,3.534-5.046a4.549,4.549,0,0,1,2.45.816l.408-2.859a9.581,9.581,0,0,0-3.126-.682c-3.126,0-6.246,2.725-6.246,7.9,0,3.413,1.627,5.729,4.893,5.729A12.131,12.131,0,0,0,336.025,1407.635Z" transform="translate(-280.71 -1394.415)"/><path class="g" d="M328.139,1394.826a9.606,9.606,0,0,0-3.26.549l-.408,2.316a8.084,8.084,0,0,1,2.992-.549c.95,0,1.767.14,1.767.957,0,.542-.14.682-.14.682h-1.219c-2.31,0-4.893.951-4.893,4.09,0,2.449,1.627,3,2.578,3a4.069,4.069,0,0,0,2.858-1.225l-.14,1.1h2.45l1.091-7.5a3.223,3.223,0,0,0-2.992-3.439A3.448,3.448,0,0,0,328.139,1394.826Zm.543,6.137c0,.408-.268,2.591-1.9,2.591a1.062,1.062,0,0,1-1.091-1.034v-.064c0-.683.408-1.639,2.443-1.639A2.127,2.127,0,0,0,328.682,1400.963Z" transform="translate(-310.741 -1392.376)"/><path class="g" d="M327.4,1405.958a3.48,3.48,0,0,0,4.026-2.845,3.683,3.683,0,0,0,.051-.7c0-3.408-3.26-2.724-3.26-4.09,0-.683.543-.951,1.493-.951.408,0,1.9.134,1.9.134l.408-2.456a10.39,10.39,0,0,0-2.584-.268c-2.035,0-4.077.817-4.077,3.541,0,3.139,3.4,2.865,3.4,4.1,0,.817-.951.951-1.633.951a8.85,8.85,0,0,1-2.444-.408l-.408,2.456C324.417,1405.684,325.094,1405.958,327.4,1405.958Z" transform="translate(-303.753 -1392.464)"/><path class="g" d="M339.8,1394.457l-.542,3.682a3.764,3.764,0,0,0-2.584-1.359c-2.443,0-4.619,3-4.619,6.539,0,2.182,1.091,4.5,3.394,4.5a3.637,3.637,0,0,0,2.584-1.1l-.134.951h2.718l2.035-13.086Zm-1.225,7.228c0,1.5-.677,3.407-2.169,3.407-.957,0-1.5-.817-1.5-2.182,0-2.175.95-3.54,2.176-3.54C338.031,1399.37,338.573,1400.046,338.573,1401.685Z" transform="translate(-261.917 -1394.189)"/><path class="g" d="M323.644,1407.549l1.633-9.819.268,9.819h1.908l3.534-9.819-1.5,9.819h2.858l2.176-13.092h-4.485l-2.718,8.045-.14-8.045h-3.943l-2.176,13.092Z" transform="translate(-321.06 -1394.189)"/><path class="g" d="M330.592,1405.478c.817-4.505.951-8.18,2.852-7.5a10.976,10.976,0,0,1,.951-3.132h-.549c-1.219,0-2.169,1.639-2.169,1.639l.268-1.5h-2.577l-1.767,10.629h2.992Z" transform="translate(-285.875 -1392.118)"/><path class="g" d="M335.069,1394.835a9.645,9.645,0,0,0-3.266.549l-.408,2.316a8.131,8.131,0,0,1,2.992-.549c.951,0,1.767.14,1.767.957,0,.542-.134.682-.134.682h-1.225c-2.31,0-4.893.951-4.893,4.09,0,2.449,1.633,3,2.584,3a4.055,4.055,0,0,0,2.852-1.225l-.134,1.1h2.443l1.1-7.5a3.187,3.187,0,0,0-2.89-3.446A3.254,3.254,0,0,0,335.069,1394.835Zm.676,6.137c0,.408-.274,2.591-1.9,2.591a1.058,1.058,0,0,1-1.091-1.034v-.063c0-.683.4-1.64,2.444-1.64C335.611,1400.972,335.611,1400.972,335.745,1400.972Z" transform="translate(-273.495 -1392.385)"/><path class="g" d="M334.171,1405.478c.817-4.505.951-8.18,2.852-7.5a10.78,10.78,0,0,1,.951-3.132h-.549c-1.218,0-2.169,1.639-2.169,1.639l.268-1.5h-2.577l-1.767,10.636h2.986Z" transform="translate(-266.62 -1392.118)"/></g><g transform="translate(2.584 19.096)"><path class="h" d="M325.486,1404.694a2.04,2.04,0,0,0,1.748,2.3,1.886,1.886,0,0,0,.428.019,5.2,5.2,0,0,0,2.035-.414l.408-2.316a6.036,6.036,0,0,1-.676.14c-.951,0-1.1-.548-.951-.823l.81-4.772h1.5l.408-2.59h-1.359l.268-1.634" transform="translate(-297.35 -1393.382)"/><path class="h" d="M326.493,1400.994c0,3.815,1.218,4.772,3.394,4.772a7.026,7.026,0,0,0,2.858-.408l.542-2.591a8.32,8.32,0,0,1-2.858.682c-2.986,0-2.443-2.181-2.443-2.181h5.576a17.782,17.782,0,0,0,.4-2.457,3.687,3.687,0,0,0-3.4-3.955,3.6,3.6,0,0,0-.536,0C327.169,1394.582,326.493,1397.581,326.493,1400.994Zm3.394-3.956c1.5,0,1.767,1.774,1.767,1.908H328.12c0-.134.274-1.914,1.767-1.914Z" transform="translate(-291.83 -1392.133)"/><path class="h" d="M334.89,1407.635l.543-3a6.666,6.666,0,0,1-2.31.683c-1.9,0-2.718-1.5-2.718-3.133,0-3.273,1.627-5.046,3.534-5.046a4.546,4.546,0,0,1,2.443.816l.408-2.859a9.581,9.581,0,0,0-3.126-.682c-3.12,0-4.893,2.725-4.893,7.9,0,3.413.274,5.729,3.534,5.729A12.243,12.243,0,0,0,334.89,1407.635Z" transform="translate(-279.569 -1394.415)"/><path class="h" d="M324.471,1397.561a7.988,7.988,0,0,1,2.992-.543c.95,0,1.767.134,1.767.951,0,.549-.14.682-.14.682h-1.219c-2.31,0-4.893.957-4.893,4.091,0,2.456,1.627,3,2.578,3a4.1,4.1,0,0,0,2.858-1.231l-.14,1.1h2.45l1.091-7.5c0-3.133-2.718-3.273-3.8-3.273m2.035,5.863a4.443,4.443,0,0,1-3.26,2.59,1.066,1.066,0,0,1-1.1-1.033v-.064c0-.682.408-1.639,2.45-1.639a11.182,11.182,0,0,0,1.9.14Z" transform="translate(-310.741 -1392.112)"/><path class="h" d="M324.3,1405.684a11.41,11.41,0,0,0,3.12.274,3.48,3.48,0,0,0,4.026-2.845,3.234,3.234,0,0,0,.051-.7c0-3.408-3.26-2.724-3.26-4.09,0-.683.542-.951,1.493-.951.408,0,1.9.134,1.9.134l.408-2.456a10.308,10.308,0,0,0-2.578-.268c-2.042,0-2.718.817-2.718,3.541,0,3.139,2.035,2.865,2.035,4.1,0,.817-.951.951-1.627.951" transform="translate(-303.634 -1392.464)"/><path class="h" d="M338.119,1398.026a3.763,3.763,0,0,0-2.584-1.359c-2.443,0-3.26,3-3.26,6.539,0,2.182-.274,4.5,2.035,4.5a3.658,3.658,0,0,0,2.584-1.1l-.14.951h2.718l2.042-13.086m-3.534,7.088c0,1.5-1.225,3.408-2.718,3.408-.951,0-1.493-.817-1.493-2.177,0-2.182.95-3.547,2.169-3.547a2.083,2.083,0,0,1,2.054,2.112l-.019.21Z" transform="translate(-260.78 -1394.076)"/><path class="h" d="M323.644,1407.549l1.633-9.819.268,9.819h1.908l3.534-9.819-1.5,9.819h2.858l2.176-13.092h-3.4l-3.809,8.045-.14-8.045h-1.493l-4.619,13.092Z" transform="translate(-321.06 -1394.189)"/><path class="h" d="M327.622,1405.478h2.852c.816-4.505.951-8.18,2.852-7.5a10.976,10.976,0,0,1,.951-3.132h-.542c-1.218,0-2.175,1.639-2.175,1.639l.274-1.5" transform="translate(-285.756 -1392.118)"/><path class="h" d="M331.394,1397.561a8.034,8.034,0,0,1,2.992-.543c.951,0,1.767.134,1.767.951,0,.549-.134.682-.134.682h-1.225c-2.31,0-4.893.957-4.893,4.091,0,2.456,1.633,3,2.584,3a4.088,4.088,0,0,0,2.852-1.231l-.134,1.1h2.443l1.1-7.5c0-3.133-2.718-3.273-3.809-3.273m2.042,5.863a4.464,4.464,0,0,1-3.267,2.59,1.061,1.061,0,0,1-1.091-1.033v-.064c0-.682.408-1.639,2.444-1.639a11.932,11.932,0,0,0,1.908.14Z" transform="translate(-273.495 -1392.112)"/><path class="h" d="M331.2,1405.478h2.858c.81-4.505.951-8.18,2.852-7.5a10.782,10.782,0,0,1,.951-3.132h-.542c-1.225,0-2.176,1.639-2.176,1.639l.274-1.5" transform="translate(-266.507 -1392.118)"/></g></svg>