<svg xmlns="http://www.w3.org/2000/svg" width="25.302" height="26.604" viewBox="0 0 25.302 26.604"><path d="M530.969,30.877l.025-.1A.22.22,0,0,0,531,30.67l-.532.1c-.674.06-1.345.123-2.021.2-1.554.18-3.109.368-4.666.554q-2.131.258-4.259.507l-.226.025c-1.9.224-3.8.431-5.7.633l-3,.308a1.8,1.8,0,0,0-1.522.646,2.981,2.981,0,0,0-.33,1.074l-.717,3.932c-.033.175-.068.354-.106.537a4.842,4.842,0,0,0-.068,2.631,1.081,1.081,0,0,0,1.273.633c.785-.1,1.524-.175,2.266-.256l.635-.068q4.287-.466,8.573-.944,2.266-.254,4.535-.51L527.4,40.4l.3-.025c.54-.038.905-.09,1.083-.444a6.09,6.09,0,0,0,.355-1.366c.093-.455.158-.9.2-1.336a.436.436,0,0,0-.044-.289.121.121,0,0,0-.076-.005c-1.445.158-2.833.338-4.227.518-1.025.134-2.05.267-3.076.387q-2.294.266-4.592.521c-.515.057-1.036.1-1.554.153-.979.09-1.993.183-2.975.341-1.113.131-1.511-.363-1.655-.788a1.522,1.522,0,0,1,.477-1.562,2.281,2.281,0,0,1,1.257-.425l7.5-.889q4.561-.528,9.116-1.083a1.111,1.111,0,0,0,.714-.311c.172-.526.325-1.085.466-1.7C530.765,31.682,530.869,31.281,530.969,30.877Z" transform="translate(-506.939 -22.303)" fill="#040506"/><path d="M509.722,39.958a2.116,2.116,0,0,0,2.1-2.141,2.172,2.172,0,0,0-2.13-2.162A2.133,2.133,0,0,0,507.6,37.82a2.106,2.106,0,0,0,2.086,2.138h.025l0,.341h0v-.341l0,.341h0Z" transform="translate(-507.099 -13.695)" fill="#040506"/><path d="M513.328,37.847a2.1,2.1,0,0,0,2.086,2.113h.087a2.114,2.114,0,0,0,2.059-2.165,2.172,2.172,0,0,0-2.162-2.141A2.136,2.136,0,0,0,513.328,37.847Z" transform="translate(-497.204 -13.695)" fill="#040506"/><path d="M514.625,34.9l.791-.087q4.287-.466,8.573-.944,2.27-.25,4.537-.51l2.263-.262c.093-.011.191-.016.294-.025.543-.038.908-.09,1.085-.447a5.929,5.929,0,0,0,.357-1.363c.035-.183.068-.349.1-.515a7.33,7.33,0,0,0,.093-.8.251.251,0,0,0-.005-.093l-.03-.117v-.008c-.234.008-.458.027-.679.055-.18.019-.355.041-.526.063l-15.1,1.77c-.09.011-.188.03-.3.046a2.016,2.016,0,0,1-1.822-.286,3.974,3.974,0,0,1-.774-2c-.052-.256-.1-.5-.158-.7a1.7,1.7,0,0,0-.581-.971,1.282,1.282,0,0,0-.66-.1l-3.428.005a1.246,1.246,0,0,0-.954.259,1.424,1.424,0,0,0-.281,1.028,1.359,1.359,0,0,0,.322.854,1.024,1.024,0,0,0,.57.226,8.267,8.267,0,0,0,1.344.055l.275-.008c.308-.005.611-.005.916-.005l.035,0a.546.546,0,0,1,.234.065.6.6,0,0,1,.232.289,1.41,1.41,0,0,1,.1.6,4.607,4.607,0,0,1-.123.843l-.022.106c-.046.215-.093.431-.128.652a6.377,6.377,0,0,0-.085.682,3.971,3.971,0,0,0,.008.649,2.774,2.774,0,0,0,.142.605,1.1,1.1,0,0,0,1.279.633C513.248,35.052,513.935,34.976,514.625,34.9Z" transform="translate(-507.415 -27.602)" fill="#040506"/></svg>