<svg xmlns="http://www.w3.org/2000/svg" width="19.498" height="18.097" viewBox="0 0 19.498 18.097"><g transform="translate(0.502 0.499)"><path d="M20339.07-5848.539h0l.52-4.167a7.612,7.612,0,0,1-1.572-4.583c0-4.524,4.15-8.205,9.252-8.205s9.246,3.681,9.246,8.205a7.722,7.722,0,0,1-2.707,5.806,9.808,9.808,0,0,1-6.539,2.4h-.062a10.129,10.129,0,0,1-4.648-1.139l-3.486,1.681Zm12.465-10.172a1.779,1.779,0,0,0-1.777,1.778,1.782,1.782,0,0,0,1.777,1.783,1.784,1.784,0,0,0,1.783-1.783A1.782,1.782,0,0,0,20351.535-5858.71Zm-4.266,0a1.779,1.779,0,0,0-1.777,1.778,1.782,1.782,0,0,0,1.777,1.783,1.782,1.782,0,0,0,1.777-1.783A1.779,1.779,0,0,0,20347.27-5858.71Zm-4.271,0a1.779,1.779,0,0,0-1.777,1.778,1.782,1.782,0,0,0,1.777,1.783,1.784,1.784,0,0,0,1.783-1.783A1.782,1.782,0,0,0,20343-5858.71Z" transform="translate(-20338.02 5865.496)" fill="#fff"/><path d="M20338.572-5847.9l0-.673,0-.031.494-3.967a8.113,8.113,0,0,1-1.551-4.718c0-4.8,4.375-8.708,9.752-8.708s9.746,3.905,9.746,8.705a8.218,8.218,0,0,1-2.875,6.18,10.308,10.308,0,0,1-6.871,2.529h-.062a10.633,10.633,0,0,1-4.654-1.082l-3.309,1.6-.051.012Zm8.7-17.1c-4.826,0-8.752,3.457-8.752,7.705a7.112,7.112,0,0,0,1.469,4.277l.125.163-.432,3.462,2.887-1.392.223.115a9.621,9.621,0,0,0,4.418,1.083h.063a9.308,9.308,0,0,0,6.207-2.277,7.231,7.231,0,0,0,2.539-5.432C20356.016-5861.539,20352.092-5865,20347.27-5865Zm4.266,10.346a2.282,2.282,0,0,1-2.133-1.482,2.282,2.282,0,0,1-2.133,1.482,2.282,2.282,0,0,1-2.133-1.483,2.286,2.286,0,0,1-2.139,1.483,2.283,2.283,0,0,1-2.277-2.283,2.28,2.28,0,0,1,2.277-2.278,2.286,2.286,0,0,1,2.139,1.479,2.282,2.282,0,0,1,2.133-1.479,2.281,2.281,0,0,1,2.133,1.479,2.281,2.281,0,0,1,2.133-1.479,2.283,2.283,0,0,1,2.283,2.278A2.285,2.285,0,0,1,20351.535-5854.649Zm0-3.561a1.279,1.279,0,0,0-1.277,1.278,1.281,1.281,0,0,0,1.277,1.283,1.285,1.285,0,0,0,1.283-1.283A1.282,1.282,0,0,0,20351.535-5858.21Zm-4.266,0a1.279,1.279,0,0,0-1.277,1.278,1.281,1.281,0,0,0,1.277,1.283,1.281,1.281,0,0,0,1.277-1.283A1.279,1.279,0,0,0,20347.27-5858.21Zm-4.271,0a1.279,1.279,0,0,0-1.277,1.278,1.281,1.281,0,0,0,1.277,1.283,1.285,1.285,0,0,0,1.283-1.283A1.282,1.282,0,0,0,20343-5858.21Z" transform="translate(-20338.02 5865.496)" fill="rgba(0,0,0,0)"/></g></svg>