<svg xmlns="http://www.w3.org/2000/svg" width="40" height="40" viewBox="0 0 40 40"><g transform="translate(22524 -5048)"><rect width="40" height="40" transform="translate(-22524 5048)" fill="none"/><g transform="translate(-22524 5048)"><g transform="translate(0 0)"><path d="M1653.542,143.3a.924.924,0,0,0,.925-.925v-2.45a.924.924,0,0,0-.925-.925h-5.717a.924.924,0,0,0-.925.925v2.45a.924.924,0,0,0,.925.925Zm-5.471-3.138h5.235v1.968h-5.235Z" transform="translate(-1630.693 -128.021)"/><path d="M1734.025,311.4a.924.924,0,0,0-.925.925v2.45a.924.924,0,0,0,.925.925h5.717a.924.924,0,0,0,.925-.925v-2.45a.924.924,0,0,0-.925-.925Zm5.481,3.138h-5.235v-1.968h5.235Z" transform="translate(-1708.411 -283.461)"/><path d="M1567.342,311.4h-5.717a.924.924,0,0,0-.925.925v2.45a.924.924,0,0,0,.925.925h5.717a.924.924,0,0,0,.925-.925v-2.45A.924.924,0,0,0,1567.342,311.4Zm-.236,3.138h-5.235v-1.968h5.235Z" transform="translate(-1552.976 -283.461)"/><path d="M1521.314,61.33h-1.565V59.058a.581.581,0,0,0-1.161,0V61.32H1502.8V45.531h5.284v3.915a.95.95,0,0,0,1.378.846l1.24-.639,1.24.639a.971.971,0,0,0,.433.108,1.006,1.006,0,0,0,.492-.138.937.937,0,0,0,.453-.807V45.541h5.274a.021.021,0,0,1,.02.02V56.411a.581.581,0,0,0,1.161,0V45.551a1.184,1.184,0,0,0-1.181-1.181h-7.3V28.581a1.184,1.184,0,0,0-1.181-1.181h-15.764a1.184,1.184,0,0,0-1.181,1.181v2.932a.581.581,0,0,0,1.161,0V28.581a.021.021,0,0,1,.02-.02h5.274v3.915a.936.936,0,0,0,.453.807.935.935,0,0,0,.925.03l1.24-.639,1.24.639a.965.965,0,0,0,.925-.03.937.937,0,0,0,.453-.807V28.571h5.274a.021.021,0,0,1,.02.02V44.37h-15.793V34.178a.582.582,0,0,0-.581-.58.588.588,0,0,0-.581.58V44.37h-7.37a1.184,1.184,0,0,0-1.181,1.181V61.33h-1.565a.878.878,0,0,0-.876.876v1.7a.878.878,0,0,0,.876.876h1.378v1.574A1.044,1.044,0,0,0,1485.5,67.4h1.7a1.043,1.043,0,0,0,1.043-1.043V64.783h27.916v1.574A1.043,1.043,0,0,0,1517.2,67.4h1.7a1.044,1.044,0,0,0,1.043-1.043V64.783h1.377a.878.878,0,0,0,.876-.876v-1.7a.906.906,0,0,0-.886-.876Zm-17.683-29.218-1.014-.521a.938.938,0,0,0-.856,0l-1.014.521V28.571h2.883Zm5.609,13.419h2.883v3.542l-1.013-.521a.939.939,0,0,0-.856,0l-1.013.521Zm-16.974,0h2.883v3.542l-1.014-.521a.938.938,0,0,0-.856,0l-1.014.521V45.531Zm-6.455.02a.021.021,0,0,1,.02-.02h5.274v3.915a.95.95,0,0,0,1.377.846l1.24-.639,1.24.639a.973.973,0,0,0,.433.108,1.006,1.006,0,0,0,.492-.138.936.936,0,0,0,.453-.807V45.541h5.284V61.33h-15.793V45.551Zm1.26,20.669h-1.447V64.773h1.447Zm31.7,0h-1.447V64.773h1.447Zm2.243-2.617h-37.638V62.5h37.638Z" transform="translate(-1482.2 -27.4)"/></g></g></g></svg>