<svg xmlns="http://www.w3.org/2000/svg" width="40" height="40" viewBox="0 0 40 40"><g transform="translate(22665 -5048)"><rect width="40" height="40" transform="translate(-22665 5048)" fill="none"/><g transform="translate(3.363 60.826)"><g transform="translate(-22668.363 4988.173)"><path d="M54.61,48.355c-.737-.737-2-.787-3.567-.139a13.176,13.176,0,0,0-3.676,2.461l-.04.03-.1-.1-.13-.13a.751.751,0,0,0-.508-.209L35.612,50.5a.715.715,0,0,0-.478.2l-3.8,3.8a.69.69,0,0,0,.976.976l3.606-3.606h.02l10.441-.189-.08.09a13.841,13.841,0,0,0-2.142,3.019l-.01.03h-.04a4.058,4.058,0,1,0,4.055,4.055,3.341,3.341,0,0,0-.04-.538,4.032,4.032,0,0,0-1.156-2.341,3.973,3.973,0,0,0-1.355-.9l-.05-.02.03-.05a13.279,13.279,0,0,1,1.714-2.311l.03-.04,3.955,3.955v.02l-.219,10.391-.01.01L34.307,83.8,19.164,68.658l8.946-8.946a.691.691,0,0,0,0-.976.669.669,0,0,0-.488-.2.694.694,0,0,0-.488.2L17.7,68.17a.694.694,0,0,0-.2.488.677.677,0,0,0,.2.488L33.828,85.275a.694.694,0,0,0,.488.2.677.677,0,0,0,.488-.2L52.259,67.821a.671.671,0,0,0,.2-.478l.229-10.979a.742.742,0,0,0-.2-.508l-.229-.229.03-.04a13.035,13.035,0,0,0,2.461-3.676C55.4,50.357,55.347,49.092,54.61,48.355ZM46.73,59.393l-.02.08a2.583,2.583,0,0,1-.717,1.285,2.677,2.677,0,1,1-3.786-3.786,2.706,2.706,0,0,1,1.285-.717l.08-.02-.02.08A2.667,2.667,0,0,0,44,58.965a2.633,2.633,0,0,0,2.65.448Zm-.737-2.421a2.724,2.724,0,0,1,.618.956l.02.05-.05.02a3.3,3.3,0,0,1-.986.179.834.834,0,0,1-.618-.189c-.249-.249-.249-.847-.01-1.6l.02-.05.05.02A2.513,2.513,0,0,1,45.992,56.972Zm7.482-5.589a11.717,11.717,0,0,1-2.162,3.228l-.04.04-2.959-2.959.04-.04a11.573,11.573,0,0,1,3.228-2.162c.966-.4,1.753-.468,2.052-.159S53.873,50.427,53.474,51.383Z" transform="translate(-17.5 -47.763)"/><path d="M134.413,200.377a.691.691,0,0,0-.976,0l-.717.717-.03-.03a3.973,3.973,0,0,0-2.61-.807,3.519,3.519,0,0,0-2.76,1.514,3.407,3.407,0,0,0-.458,2.979,4.464,4.464,0,0,0,.757,1.395l.03.03-3.1,3.1-.03-.07a2.573,2.573,0,0,1-.219-1.056,2.6,2.6,0,0,1,.767-1.853.69.69,0,0,0-.976-.976,3.993,3.993,0,0,0-.578,4.931l.02.03-.757.757a.687.687,0,0,0,.488,1.176.677.677,0,0,0,.488-.2l.717-.717.03.03a3.973,3.973,0,0,0,2.61.807,3.519,3.519,0,0,0,2.76-1.514,3.407,3.407,0,0,0,.458-2.979,4.642,4.642,0,0,0-.747-1.395l-.03-.03,3.1-3.1.03.07a2.573,2.573,0,0,1,.219,1.056,2.6,2.6,0,0,1-.767,1.853.694.694,0,0,0-.2.488.677.677,0,0,0,.2.488.691.691,0,0,0,.976,0,3.994,3.994,0,0,0,.578-4.931l-.02-.03.757-.757A.683.683,0,0,0,134.413,200.377Zm-5.679,9.464a2.161,2.161,0,0,1-1.694.927h-.13a2.579,2.579,0,0,1-1.415-.418l-.05-.03,3.108-3.108.03.05a2.8,2.8,0,0,1,.408.807h0A2,2,0,0,1,128.734,209.841Zm-.11-4.652-.03-.05a2.8,2.8,0,0,1-.408-.807,2.041,2.041,0,0,1,.269-1.773,2.161,2.161,0,0,1,1.694-.926,2.6,2.6,0,0,1,1.534.408l.05.03Z" transform="translate(-112.107 -184.991)"/><path d="M133.326,135.656a.687.687,0,1,0,1.066-.8.718.718,0,0,0-.438-.159.693.693,0,0,0-.369.11A.7.7,0,0,0,133.326,135.656Z" transform="translate(-121.74 -126.039)"/></g><path d="M315.06,308.236a3,3,0,0,0-4.782.329c-.02.03-.05.07-.07.1-.02-.03-.05-.07-.07-.1a3,3,0,0,0-4.782-.329,3.527,3.527,0,0,0-.857,2.361,4.274,4.274,0,0,0,1.176,2.819,25.963,25.963,0,0,0,2.819,2.64l.01.01c.418.359.847.727,1.315,1.126l.01.01a.572.572,0,0,0,.379.139.592.592,0,0,0,.379-.139l.01-.01c.458-.4.9-.767,1.305-1.126l.01-.01a24.225,24.225,0,0,0,2.819-2.64,4.324,4.324,0,0,0,1.176-2.819A3.519,3.519,0,0,0,315.06,308.236Zm-.279,2.361c0,1.524-1.435,2.75-3.6,4.593l-.01.01c-.309.269-.628.538-.966.827-.339-.289-.658-.568-.976-.837-2.172-1.843-3.6-3.068-3.6-4.593a2.391,2.391,0,0,1,.578-1.614,1.884,1.884,0,0,1,1.435-.648,1.945,1.945,0,0,1,1.564.887,3.561,3.561,0,0,1,.458.907.567.567,0,0,0,1.076,0,3.562,3.562,0,0,1,.458-.907,1.906,1.906,0,0,1,1.564-.887,1.884,1.884,0,0,1,1.435.648A2.441,2.441,0,0,1,314.781,310.6Z" transform="translate(-22944.271 4706.82)"/></g></g></svg>