<svg xmlns="http://www.w3.org/2000/svg" width="40" height="40" viewBox="0 0 40 40"><g transform="translate(22712 -5048)"><rect width="40" height="40" transform="translate(-22712 5048)" fill="none"/><g transform="translate(-22708 5048)"><g transform="translate(0 0)"><path d="M-379.812,69.894a.7.7,0,0,0,.049-.764l-5.124-8.877.059-.049a4.433,4.433,0,0,0,1.548-2.8,3.044,3.044,0,0,1,1.166-2.018,4.457,4.457,0,0,0,1.391-5.2,3.1,3.1,0,0,1,0-2.332,4.474,4.474,0,0,0-1.391-5.2,3.083,3.083,0,0,1-1.166-2.018,4.469,4.469,0,0,0-3.811-3.811,3.044,3.044,0,0,1-2.018-1.166,4.457,4.457,0,0,0-5.2-1.391,3.1,3.1,0,0,1-2.332,0,4.46,4.46,0,0,0-5.2,1.391,3.083,3.083,0,0,1-2.018,1.166,4.469,4.469,0,0,0-3.811,3.811,3.044,3.044,0,0,1-1.166,2.018,4.456,4.456,0,0,0-1.391,5.2,3.1,3.1,0,0,1,0,2.332,4.474,4.474,0,0,0,1.391,5.2,3.083,3.083,0,0,1,1.166,2.018,4.471,4.471,0,0,0,1.577,2.832l.069.049-5.1,8.848a.7.7,0,0,0,.049.764.682.682,0,0,0,.725.245l4.507-1.205,1.205,4.488a.67.67,0,0,0,.578.5.689.689,0,0,0,.686-.333l5.5-9.514.049-.01a4.464,4.464,0,0,0,1.2-.3,3.023,3.023,0,0,1,1.166-.235,3.059,3.059,0,0,1,1.166.235,4.619,4.619,0,0,0,1.254.314h.049l5.487,9.5a.689.689,0,0,0,.686.333.708.708,0,0,0,.578-.5l1.205-4.488,4.507,1.205A.671.671,0,0,0-379.812,69.894Zm-23.917,1.568-.95-3.557a.693.693,0,0,0-.323-.421.686.686,0,0,0-.519-.069l-3.576.96,4.282-7.417.078.029a3.948,3.948,0,0,0,.892.216,3.044,3.044,0,0,1,2.018,1.166,4.446,4.446,0,0,0,2.312,1.558l.118.029Zm9.945-8.965a4.46,4.46,0,0,0-3.371,0h0a2.964,2.964,0,0,1-1.156.225,3.1,3.1,0,0,1-2.44-1.186,4.4,4.4,0,0,0-2.92-1.685,3.066,3.066,0,0,1-2.626-2.626,4.42,4.42,0,0,0-1.685-2.92,3.087,3.087,0,0,1-.96-3.6,4.46,4.46,0,0,0,0-3.371,3.087,3.087,0,0,1,.96-3.6,4.4,4.4,0,0,0,1.685-2.92A3.066,3.066,0,0,1-403.67,38.2a4.42,4.42,0,0,0,2.92-1.685,3.111,3.111,0,0,1,2.44-1.2,3.076,3.076,0,0,1,1.156.225,4.46,4.46,0,0,0,3.371,0,3.087,3.087,0,0,1,3.6.96,4.4,4.4,0,0,0,2.92,1.685,3.066,3.066,0,0,1,2.626,2.626,4.42,4.42,0,0,0,1.685,2.92,3.087,3.087,0,0,1,.96,3.6,4.46,4.46,0,0,0,0,3.371,3.087,3.087,0,0,1-.96,3.6,4.4,4.4,0,0,0-1.685,2.92,3.066,3.066,0,0,1-2.626,2.626,4.42,4.42,0,0,0-2.92,1.685A3.077,3.077,0,0,1-393.784,62.5Zm8.426,4.928a.686.686,0,0,0-.519.069.675.675,0,0,0-.323.421l-.95,3.557-4.341-7.515.118-.039a4.4,4.4,0,0,0,2.263-1.538,3.083,3.083,0,0,1,2.018-1.166,3.933,3.933,0,0,0,.931-.235l.078-.029.039.069,4.252,7.358Z" transform="translate(411.227 -33.928)"/><path d="M-310.445,140.7l-2.45,2.44a.7.7,0,0,0-.206.49.674.674,0,0,0,.206.49l4.576,4.576a.7.7,0,0,0,.49.206.674.674,0,0,0,.49-.206l6.379-6.379a.692.692,0,0,0,0-.97l-2.44-2.44a.7.7,0,0,0-.49-.206.674.674,0,0,0-.49.206l-3.449,3.449-1.656-1.656a.7.7,0,0,0-.49-.206h0a.688.688,0,0,0-.47.206l-.069-.069h0Zm.48,1.45,1.656,1.656a.7.7,0,0,0,.49.206.674.674,0,0,0,.49-.206l3.449-3.449,1.47,1.47-5.409,5.409-3.606-3.606Z" transform="translate(322.715 -128.434)"/><path d="M-351.507,98a10.083,10.083,0,0,0-1.793,5.742,10.113,10.113,0,0,0,10.1,10.1,10.036,10.036,0,0,0,7.143-2.959,10.035,10.035,0,0,0,2.959-7.143A10.011,10.011,0,0,0-334.889,98a10.073,10.073,0,0,0-4.6-3.655.686.686,0,0,0-.892.382.663.663,0,0,0,.01.529.664.664,0,0,0,.382.363,8.7,8.7,0,0,1,5.516,8.123,8.744,8.744,0,0,1-8.73,8.73,8.744,8.744,0,0,1-8.73-8.73,8.7,8.7,0,0,1,5.516-8.123.727.727,0,0,0,.382-.363.706.706,0,0,0,.01-.529.69.69,0,0,0-.637-.431.782.782,0,0,0-.255.049A10.073,10.073,0,0,0-351.507,98Z" transform="translate(358.976 -88.385)"/><path d="M-256.014,87.706a.7.7,0,0,0-.49-.206.674.674,0,0,0-.49.206.7.7,0,0,0-.206.49.674.674,0,0,0,.206.49.7.7,0,0,0,.49.206.659.659,0,0,0,.49-.206.7.7,0,0,0,.206-.49A.742.742,0,0,0-256.014,87.706Z" transform="translate(272.292 -82.251)"/></g></g></g></svg>