<svg xmlns="http://www.w3.org/2000/svg" width="40" height="40" viewBox="0 0 40 40"><g transform="translate(22619 -5048)"><rect width="40" height="40" transform="translate(-22619 5048)" fill="none"/><g transform="translate(-22619 5052)"><g transform="translate(0 0)"><path d="M541.8,82.3a.694.694,0,0,0,.69.69h3.234l.028.142c.009.047.019.085.028.132a13.124,13.124,0,0,0,2.619,5.541,12.8,12.8,0,0,0,4.7,3.64,14.569,14.569,0,0,0,6.1,1.286,18.918,18.918,0,0,0,11.9-4.473,19.593,19.593,0,0,0,6.8-10.827,15.2,15.2,0,0,0,.057-6.458,13.222,13.222,0,0,0-2.61-5.541l-.009-.009a.693.693,0,0,0-1.078.87l.009.009a11.768,11.768,0,0,1,2.345,4.964,13.989,13.989,0,0,1-.057,5.872,18.179,18.179,0,0,1-6.326,10.051,17.516,17.516,0,0,1-11.016,4.161,13.048,13.048,0,0,1-5.522-1.163,11.371,11.371,0,0,1-4.2-3.253,11.753,11.753,0,0,1-2.317-4.841l-.028-.113h1.8l.019.066a9.864,9.864,0,0,0,1.891,3.773,10.478,10.478,0,0,0,8.359,3.763c.142,0,.293,0,.463-.009h.019a.424.424,0,0,0,.1.009.832.832,0,0,0,.161-.019h.019a16.064,16.064,0,0,0,9.134-3.735,16.368,16.368,0,0,0,5.721-9.068l.095.009-.095-.019A10.9,10.9,0,0,0,572.89,68.4a10.474,10.474,0,0,0-8.349-3.763l-.009-.095h0v.095a15.757,15.757,0,0,0-9.91,3.763,16.368,16.368,0,0,0-5.721,9.068l-.095-.009.095.019a12.643,12.643,0,0,0-.236,4.019l.009.1h-1.768l-.009-.085a14.118,14.118,0,0,1,.284-4.425,18.127,18.127,0,0,1,6.326-10.051,17.516,17.516,0,0,1,11.016-4.161,13.423,13.423,0,0,1,4.435.728.734.734,0,0,0,.53-.028.66.66,0,0,0,.35-.4.693.693,0,0,0-.426-.879,14.931,14.931,0,0,0-4.889-.8,18.9,18.9,0,0,0-11.281,3.981l-.028.019h-9.777a.69.69,0,0,0,0,1.381h8.16l-.17.161a19.214,19.214,0,0,0-5.588,9.758,15.9,15.9,0,0,0-.322,4.7l.009.1H542.49A.7.7,0,0,0,541.8,82.3Zm8.34-3.915.009-.076h.964a.69.69,0,1,0,0-1.381h-.643l.038-.123a15.414,15.414,0,0,1,5-7.338,14.774,14.774,0,0,1,8.037-3.4l.123-.009-.142.662a.7.7,0,0,0,.529.823.735.735,0,0,0,.151.019.687.687,0,0,0,.671-.548l.208-.974h.085a8.991,8.991,0,0,1,6.647,3.224,9.464,9.464,0,0,1,1.778,7.583l-.009.076h-.964a.69.69,0,1,0,0,1.381h.643l-.038.123a15.414,15.414,0,0,1-5,7.338A14.773,14.773,0,0,1,560.8,89.1l-.132.019.132-.605a.7.7,0,0,0-.53-.823.671.671,0,0,0-.52.095.712.712,0,0,0-.3.435l-.218.983h-.076a9.077,9.077,0,0,1-7.234-3.243,8.468,8.468,0,0,1-1.513-2.856l-.038-.123h3.48a.69.69,0,0,0,0-1.381h-3.773l-.009-.085A10.925,10.925,0,0,1,550.14,78.388Z" transform="translate(-538.269 -61.5)"/><path d="M719.2,147.919a.734.734,0,0,0-.151-.019.652.652,0,0,0-.369.113.712.712,0,0,0-.3.435l-1.522,7.026-2.941,2.421a.69.69,0,0,0,.435,1.22.668.668,0,0,0,.435-.161l3.13-2.572a.644.644,0,0,0,.236-.388l1.579-7.262A.684.684,0,0,0,719.2,147.919Z" transform="translate(-693.88 -139.73)"/><path d="M510.552,175.4H505.19a.69.69,0,1,0,0,1.381h5.361a.69.69,0,1,0,0-1.381Z" transform="translate(-504.496 -164.63)"/><path d="M526.99,351.081h4.085a.69.69,0,0,0,0-1.381H526.99a.69.69,0,1,0,0,1.381Z" transform="translate(-524.234 -322.449)"/><path d="M505.151,274.3h-.019a.679.679,0,0,0-.407,1.22.718.718,0,0,0,.785.047.707.707,0,0,0,.284-.851A.679.679,0,0,0,505.151,274.3Z" transform="translate(-504.456 -254.178)"/><path d="M859,87.326a.634.634,0,0,0-.378-.369.646.646,0,0,0-.53,0,.7.7,0,0,0-.369.9.684.684,0,0,0,.9.369A.7.7,0,0,0,859,87.326Z" transform="translate(-824.271 -84.498)"/></g></g></g></svg>