<svg xmlns="http://www.w3.org/2000/svg" width="42" height="42" viewBox="0 0 42 42"><g transform="translate(-1294 -3348)"><g transform="translate(1303.637 3356.111)"><path d="M448.661,1289.066h5.865v-15.473h-5.865Zm1.328-14.142H453.2v12.811h-3.212Z" transform="translate(-448.315 -1266.524)" fill="#d4252c"/><path d="M451.82,1271.16a3.29,3.29,0,1,0,3.278,3.29h0A3.286,3.286,0,0,0,451.82,1271.16Zm-1.95,3.29a1.952,1.952,0,1,1,1.95,1.956A1.954,1.954,0,0,1,449.87,1274.45Z" transform="translate(-448.542 -1271.16)" fill="#d4252c"/><path d="M466.286,1278.763a5.758,5.758,0,0,0-5.819-5.333,5.829,5.829,0,0,0-3.735,1.346v-.872h-5.621v15.476h5.868v-8.463a1.724,1.724,0,1,1,3.447-.07v.07l.006,8.463H466.3v-10.6Zm-10.635,9.286H452.44v-12.811H455.4v1.9l1.064.006.2-.308a4.5,4.5,0,0,1,3.8-2.072,4.43,4.43,0,0,1,4.505,4.3v8.98h-3.212l-.006-7.132a3.052,3.052,0,1,0-6.1-.1v.1Z" transform="translate(-443.643 -1266.835)" fill="#d4252c"/></g><path d="M21,1a20.006,20.006,0,0,0-7.785,38.429A20.005,20.005,0,0,0,28.785,2.571,19.874,19.874,0,0,0,21,1m0-1A21,21,0,1,1,0,21,21,21,0,0,1,21,0Z" transform="translate(1294 3348)" fill="#d4252c"/></g></svg>