<svg xmlns="http://www.w3.org/2000/svg" width="12.732" height="17.528" viewBox="0 0 12.732 17.528"><g transform="translate(-522.435 -26.538)"><path d="M528.8,44.066c-1.488,0-6.367-8.89-6.367-11.6a6.382,6.382,0,0,1,12.732,0C535.167,35.176,530.288,44.066,528.8,44.066Zm0-16.6a5.244,5.244,0,0,0-5.445,5c0,2.712,4.385,9.781,5.445,10.627,1.059-.846,5.446-7.915,5.446-10.627A5.244,5.244,0,0,0,528.8,27.463Zm0,9.037a3.826,3.826,0,1,1,3.835-3.826A3.834,3.834,0,0,1,528.8,36.5Zm0-6.724a2.9,2.9,0,1,0,2.914,2.9A2.911,2.911,0,0,0,528.8,29.775Z" transform="translate(0 0)" fill="#040506"/></g></svg>