<svg xmlns="http://www.w3.org/2000/svg" width="35.329" height="30.057" viewBox="0 0 35.329 30.057"><g transform="translate(-487.834 -25.21)"><g transform="translate(487.834 25.21)"><g transform="translate(0 9.662)"><path d="M505.58,49.395H487.834l.874-1.035c5.012-5.945,7.531-12.066,7.7-18.715l.015-.645H514.12l-.089.724c-.762,6.238-1.629,13.308-8.211,19.449Zm-14.717-1.318h14c5.785-5.54,6.779-11.979,7.5-17.759H497.98C497.677,36.6,495.342,42.43,490.863,48.077Z" transform="translate(-487.834 -29)" fill="#040506"/></g><g transform="translate(16.037)"><path d="M503.77,25.21c.908,0,2.975,5.4,2.975,5.4s6.269.525,6.651.867-4.813,4.2-4.813,4.2,1.831,5.313,1.137,5.935-5.95-2.8-5.95-2.8-5.285,3.4-5.95,2.8,1.137-5.935,1.137-5.935-4.382-3.819-4.813-4.2,6.651-.867,6.651-.867S502.862,25.21,503.77,25.21Z" transform="translate(-494.125 -25.21)" fill="#040506"/></g></g></g></svg>