<svg xmlns="http://www.w3.org/2000/svg" width="42" height="42" viewBox="0 0 42 42"><g transform="translate(-1187 -3348)"><path d="M21,1a20.006,20.006,0,0,0-7.785,38.429A20.005,20.005,0,0,0,28.785,2.571,19.874,19.874,0,0,0,21,1m0-1A21,21,0,1,1,0,21,21,21,0,0,1,21,0Z" transform="translate(1187 3348)" fill="#d4252c"/><path d="M12.177-19.275l-.6,1.889a5.39,5.39,0,0,1-.421.973l.052-.022,2.388-1.029-1.473,2.143A10.836,10.836,0,0,1,9.9-12.948c0,.085,0,.169,0,.251A14.633,14.633,0,0,1,6.258-3.158,13.434,13.434,0,0,1,1.806.176,14.327,14.327,0,0,1-4.261,1.465,14.1,14.1,0,0,1-11.906-.77l.492-1.376a8.937,8.937,0,0,0,1.052.053A8.681,8.681,0,0,0-6.464-3,5.456,5.456,0,0,1-9.631-6.4L-10-7.546l.246.037q-.162-.165-.31-.344a5.478,5.478,0,0,1-1.252-3.486v-1.336l.566.316a5.464,5.464,0,0,1-.537-2.366,5.4,5.4,0,0,1,.744-2.757l.547-.937.684.843A12.673,12.673,0,0,0-1.036-13q-.006-.127-.006-.252a5.47,5.47,0,0,1,5.464-5.464A5.492,5.492,0,0,1,8.1-17.295a8.585,8.585,0,0,0,2.37-.964ZM7.6-15.662l-.283-.3a3.928,3.928,0,0,0-2.9-1.251A3.968,3.968,0,0,0,.458-13.251a4.569,4.569,0,0,0,.1.927l.2.953-.972-.051a14.2,14.2,0,0,1-9.45-4.292,3.977,3.977,0,0,0-.123.989,3.96,3.96,0,0,0,1.767,3.3l2.21,1.473-2.654-.1a5.477,5.477,0,0,1-1.195-.179,3.953,3.953,0,0,0,.75,1.42A3.986,3.986,0,0,0-6.637-7.448L-6.6-5.987a5.753,5.753,0,0,1-1.091.174,3.991,3.991,0,0,0,3.2,1.707l2.1.044-1.653,1.3A10.116,10.116,0,0,1-8.5-.759a12.688,12.688,0,0,0,4.237.724A12.119,12.119,0,0,0,5.133-4.15,13.114,13.114,0,0,0,8.4-12.7c0-.2,0-.382-.013-.559l-.03-.414.335-.245q.261-.191.507-.4-.168.024-.335.042L8.4-15.661a4.026,4.026,0,0,0,.386-.262c-.258.072-.519.133-.78.183Z" transform="translate(1208 3378)" fill="#d4252c"/></g></svg>