<svg xmlns="http://www.w3.org/2000/svg" width="42" height="42" viewBox="0 0 42 42"><g transform="translate(-1240 -3348)"><path d="M21,1a20.006,20.006,0,0,0-7.785,38.429A20.005,20.005,0,0,0,28.785,2.571,19.874,19.874,0,0,0,21,1m0-1A21,21,0,1,1,0,21,21,21,0,0,1,21,0Z" transform="translate(1240 3348)" fill="#d4252c"/><path d="M0-18c.317,0,7.794.006,9.78.542a3.834,3.834,0,0,1,2.7,2.715,32.491,32.491,0,0,1,.538,6.136,32.491,32.491,0,0,1-.538,6.136A3.81,3.81,0,0,1,9.78.208C7.794.744.317.75,0,.75S-7.794.744-9.78.208a3.809,3.809,0,0,1-2.7-2.68,32.492,32.492,0,0,1-.538-6.136,32.491,32.491,0,0,1,.538-6.136,3.834,3.834,0,0,1,2.7-2.714C-7.794-17.994-.317-18,0-18ZM0-.75c2.106,0,7.9-.088,9.39-.49a2.276,2.276,0,0,0,1.639-1.617,31.841,31.841,0,0,0,.488-5.751,31.841,31.841,0,0,0-.487-5.75A2.33,2.33,0,0,0,9.39-16.01C7.9-16.412,2.106-16.5,0-16.5s-7.9.088-9.39.49a2.33,2.33,0,0,0-1.639,1.651,31.841,31.841,0,0,0-.488,5.751,31.842,31.842,0,0,0,.487,5.75A2.276,2.276,0,0,0-9.39-1.24C-7.9-.838-2.106-.75,0-.75ZM-3.259-13.545,5.42-8.607-3.259-3.67ZM2.386-8.607l-4.145-2.358v4.716Z" transform="translate(1262 3378)" fill="#d4252c"/></g></svg>