<svg xmlns="http://www.w3.org/2000/svg" width="155.018" height="39.737" viewBox="0 0 155.018 39.737"><defs><style>.a{fill:#008acf;}.b{fill:#0a2f6d;}.c{fill:#122452;}</style></defs><path class="a" d="M373.348,1393.671h-8.366a1.628,1.628,0,0,0-1.23.982l-3.447,21.727a.656.656,0,0,0,.555.739.55.55,0,0,0,.183,0h4.429a.649.649,0,0,0,.739-.556.517.517,0,0,0,0-.183l.982-6.171a1.132,1.132,0,0,1,1.23-.987h2.708q8.487,0,9.6-8.145a6.5,6.5,0,0,0-.982-5.432,9.925,9.925,0,0,0-6.4-1.975m.982,8.145c-.491,2.962-2.708,2.962-4.919,2.962h-1.478l.987-5.675c0-.248.243-.5.734-.5h.5c1.472,0,2.95,0,3.695.987.491.248.491.987.491,2.222" transform="translate(-253.523 -1383.304)"/><g transform="translate(46.499 10.348)"><path class="b" d="M362.175,1393.678h-8.366a1.627,1.627,0,0,0-1.235.982l-3.441,21.727a.649.649,0,0,0,.55.739.583.583,0,0,0,.189,0H353.8a1.622,1.622,0,0,0,1.235-.987l.982-5.923a1.129,1.129,0,0,1,1.23-.987h2.708q8.487,0,9.6-8.145a6.487,6.487,0,0,0-.987-5.432,9.43,9.43,0,0,0-6.4-1.975m.987,8.145c-.5,2.962-2.708,2.962-4.925,2.962H357l.987-5.675c0-.248.243-.5.733-.5h.5c1.473,0,2.951,0,3.695.987a2.661,2.661,0,0,1,.248,2.222" transform="translate(-349.125 -1393.66)"/><path class="b" d="M371.805,1395.543h-3.938c-.248,0-.739.248-.739.5l-.243,1.23-.248-.491a5.778,5.778,0,0,0-4.677-1.721,9.459,9.459,0,0,0-9.1,8.145,7.376,7.376,0,0,0,1.478,6.171,6.2,6.2,0,0,0,5.162,1.974,7.861,7.861,0,0,0,5.663-2.222l-.248,1.235a.657.657,0,0,0,.556.739.537.537,0,0,0,.183,0h3.695a1.626,1.626,0,0,0,1.23-.987l2.217-13.824c-.248-.243-.739-.739-.982-.739m-5.664,7.9a4.755,4.755,0,0,1-4.671,3.948,3.959,3.959,0,0,1-2.708-.987,5.294,5.294,0,0,1-.739-2.961,4.39,4.39,0,0,1,7.131-2.967,4.322,4.322,0,0,1,.982,2.967" transform="translate(-333.415 -1387.627)"/></g><path class="a" d="M382.931,1395.543H379c-.248,0-.739.248-.739.5l-.248,1.23-.243-.491a5.784,5.784,0,0,0-4.677-1.721,9.46,9.46,0,0,0-9.1,8.145,7.375,7.375,0,0,0,1.473,6.171,6.214,6.214,0,0,0,5.168,1.974,7.842,7.842,0,0,0,5.658-2.222l-.243,1.235a.649.649,0,0,0,.55.739.569.569,0,0,0,.189,0h3.7a1.644,1.644,0,0,0,1.23-.987l2.217-13.824c-.248-.243-.5-.739-.987-.739m-5.658,7.9a4.759,4.759,0,0,1-4.671,3.948,3.95,3.95,0,0,1-2.708-.987,5.249,5.249,0,0,1-.739-2.961,4.391,4.391,0,0,1,7.131-2.967,2.845,2.845,0,0,1,.982,2.967" transform="translate(-238.012 -1377.279)"/><path class="b" d="M375.641,1395.127h-4.18a1.271,1.271,0,0,0-.987.5l-5.41,8.388-2.459-7.9a1.138,1.138,0,0,0-1.235-.739h-3.932c-.5,0-.739.491-.739.987l4.428,13.08-4.186,5.922c-.243.5,0,1.235.5,1.235h3.932a1.267,1.267,0,0,0,.987-.5l13.528-19.5c.739-.739.248-1.478-.243-1.478" transform="translate(-269.349 -1376.863)"/><path class="a" d="M371.047,1394.286l-3.441,22.212a.648.648,0,0,0,.55.74.569.569,0,0,0,.189,0h3.441a1.634,1.634,0,0,0,1.23-.988l3.447-21.721a.653.653,0,0,0-.555-.744,1.046,1.046,0,0,0-.183,0h-3.938c-.243-.243-.491,0-.733.5" transform="translate(-221.453 -1383.18)"/><path class="b" d="M368.806,1394.7c-1.715-1.975-4.919-2.961-9.353-2.961h-12.3a2.115,2.115,0,0,0-1.715,1.478l-4.93,32.337a1.134,1.134,0,0,0,.987,1.235h7.627l1.969-12.094v.491a2.116,2.116,0,0,1,1.715-1.478H356.5c7.131,0,12.546-2.967,14.272-11.111v-.739h0c.243-3.209-.248-5.184-1.969-7.152" transform="translate(-340.504 -1391.741)"/><path class="a" d="M364.111,1393.617h0v.739c-1.715,8.393-7.131,11.106-14.267,11.106h-3.7a2.114,2.114,0,0,0-1.715,1.483L341.969,1422a.9.9,0,0,0,.809.987,1.018,1.018,0,0,0,.173,0h6.4a1.375,1.375,0,0,0,1.478-1.23v-.248l1.23-7.654v-.491a1.379,1.379,0,0,1,1.478-1.235h.976c6.154,0,11.074-2.47,12.3-9.871.491-2.967.248-5.679-1.23-7.406a2.506,2.506,0,0,0-1.478-1.235" transform="translate(-334.088 -1383.499)"/><path class="c" d="M360.185,1394.1c-.248,0-.5-.248-.739-.248a.911.911,0,0,1-.739-.248,12.722,12.722,0,0,0-3.2-.242h-9.6a.9.9,0,0,0-.739.242,1.377,1.377,0,0,0-.739,1.236l-1.969,12.832v.5a2.127,2.127,0,0,1,1.721-1.483h3.695c7.131,0,12.546-2.961,14.272-11.106a.889.889,0,0,1,.243-.739c-.491-.248-.739-.5-1.23-.5-.739-.243-.739-.243-.982-.243" transform="translate(-331.883 -1384.715)"/></svg>