<svg xmlns="http://www.w3.org/2000/svg" width="97.036" height="30.472" viewBox="0 0 97.036 30.472"><defs><style>.a{fill:#0a84b0;}.b{fill:#f2b947;}</style></defs><g transform="translate(0)"><g transform="translate(9.067 0.001)"><path class="a" d="M328.479,1392.969l-4.871,30.405H331.4l4.865-30.405Zm23.48,12.385c-2.719-1.348-4.385-2.255-4.385-3.635.032-1.257,1.408-2.541,4.488-2.541a13.577,13.577,0,0,1,5.8,1.127l.707.318,1.057-6.359a19.589,19.589,0,0,0-6.99-1.251c-7.686,0-13.1,4.007-13.134,9.74-.065,4.235,3.878,6.581,6.823,7.989,3.015,1.446,4.04,2.39,4.04,3.667-.032,1.975-2.438,2.881-4.677,2.881a15.78,15.78,0,0,1-7.309-1.564l-1.025-.469-1.09,6.614a24.383,24.383,0,0,0,8.684,1.57c8.172,0,13.49-3.948,13.555-10.071C358.523,1410.014,356.446,1407.452,351.958,1405.354Zm27.617-12.293h-6.02a3.862,3.862,0,0,0-4.072,2.444l-11.565,27.865h8.172l2.244-6.03h9.143l1.165,6.057h7.206Zm-8.97,18.189c.156.016,3.139-9.849,3.139-9.849l2.373,9.849Zm-53.5-18.28-7.627,20.665-.831-4.073a22.7,22.7,0,0,0-10.766-12.347l6.985,26.139H313.1l12.239-30.374H317.1Z" transform="translate(-297.879 -1392.969)"/></g><path class="b" d="M313.464,1396.886a5.085,5.085,0,0,0-5.06-3.916H296.322l-.124.566c9.423,2.33,17.331,9.5,19.9,16.247Z" transform="translate(-296.198 -1392.969)"/></g></svg>